<?xml version="1.0" encoding="utf-8"?>
<svg viewBox="0 0 848 480" style="enable-background:new 0 0 848 480;" xmlns="http://www.w3.org/2000/svg">
  <defs>
    <style type="text/css">
	.st0{fill:#FFFFFF;}
</style>
  </defs>
  <g id="CLAIM">
    <g>
      <path class="st0" d="M64,352.6l0.9-1c2,1.9,3.8,2.7,6.5,2.7c2.7,0,4.6-1.5,4.6-3.7v-0.1c0-1.9-1-3.1-5.1-3.9 c-4.3-0.9-6.1-2.4-6.1-5.2v-0.1c0-2.7,2.4-4.8,5.8-4.8c2.6,0,4.4,0.7,6.2,2.2l-0.8,1.1c-1.7-1.5-3.4-2.1-5.4-2.1 c-2.7,0-4.4,1.5-4.4,3.5v0.1c0,1.9,1,3.1,5.3,4c4.2,0.9,5.9,2.4,5.9,5.1v0.1c0,3-2.5,5-6,5C68.4,355.6,66.2,354.6,64,352.6z"/>
      <path class="st0" d="M91.2,346.2L91.2,346.2c0-5.3,3.8-9.6,9-9.6c3.2,0,5.2,1.2,7,2.9l-1,1c-1.6-1.5-3.4-2.7-6.1-2.7 c-4.3,0-7.6,3.6-7.6,8.2v0.1c0,4.6,3.3,8.3,7.6,8.3c2.6,0,4.4-1,6.2-2.9l0.9,0.9c-1.9,1.9-4,3.2-7.2,3.2 C95,355.6,91.2,351.5,91.2,346.2z"/>
      <path class="st0" d="M121.3,336.9h1.3v8.5h11.5v-8.5h1.3v18.4h-1.3v-8.6h-11.5v8.6h-1.3V336.9z"/>
      <path class="st0" d="M151.1,336.9H164v1.3h-11.5v7.2h10.3v1.3h-10.3v7.4h11.6v1.3h-13V336.9z"/>
      <path class="st0" d="M178.7,336.9h6c5.7,0,9.6,4,9.6,9.1v0.1c0,5.2-3.9,9.2-9.6,9.2h-6V336.9z M184.7,354.1c5,0,8.2-3.5,8.2-7.9 v-0.1c0-4.4-3.2-7.9-8.2-7.9H180v15.9H184.7z"/>
      <path class="st0" d="M208.9,347.7v-10.7h1.3v10.6c0,4.3,2.3,6.8,6.1,6.8c3.7,0,6-2.3,6-6.7v-10.7h1.3v10.6c0,5.3-3,8.1-7.4,8.1 C211.9,355.6,208.9,352.8,208.9,347.7z"/>
      <path class="st0" d="M239,336.9h1.3v17.1H251v1.3H239V336.9z"/>
      <path class="st0" d="M265.5,336.9h1.3v18.4h-1.3V336.9z"/>
      <path class="st0" d="M282.7,336.9h1.3l12.4,16v-16h1.3v18.4h-1L283.9,339v16.3h-1.3V336.9z"/>
      <path class="st0" d="M312.5,346.2L312.5,346.2c0-5,3.5-9.6,8.9-9.6c2.9,0,4.8,0.9,6.6,2.4l-0.9,1c-1.4-1.3-3.1-2.2-5.8-2.2 c-4.4,0-7.4,3.8-7.4,8.2v0.1c0,4.8,2.9,8.3,7.7,8.3c2.3,0,4.4-1,5.7-2.1V347h-6v-1.3h7.3v7.1c-1.6,1.5-4.1,2.8-7.1,2.8 C315.9,355.6,312.5,351.4,312.5,346.2z"/>
      <path class="st0" d="M372.1,352.4c-1.7,2-3.7,3.2-6.1,3.2c-3.2,0-5.5-2.1-5.5-5.1v-0.1c0-2.5,1.7-4.3,4.7-5.4 c-1.4-1.5-2-2.7-2-4.2v-0.1c0-2.4,1.9-4.2,4.5-4.2c2.3,0,4.1,1.8,4.1,4v0.1c0,2.3-1.7,3.8-4.4,4.8l4.7,5c0.9-1.3,1.6-2.8,2.3-4.5 l1.2,0.5c-0.8,1.9-1.7,3.5-2.7,4.9l3.3,3.5l-1.1,0.9L372.1,352.4z M371.2,351.5l-5.3-5.6c-2.9,1-4.1,2.7-4.1,4.5v0.1 c0,2.2,1.8,4,4.2,4C368,354.4,369.7,353.3,371.2,351.5z M370.4,340.7L370.4,340.7c0-1.7-1.2-2.9-2.9-2.9c-1.8,0-3.1,1.3-3.1,3v0.1 c0,1.2,0.5,2,2.1,3.8C369.1,343.7,370.4,342.5,370.4,340.7z"/>
      <path class="st0" d="M407.3,346.2L407.3,346.2c0-5.3,3.8-9.6,9-9.6c3.2,0,5.2,1.2,7,2.9l-1,1c-1.6-1.5-3.4-2.7-6.1-2.7 c-4.3,0-7.6,3.6-7.6,8.2v0.1c0,4.6,3.3,8.3,7.6,8.3c2.6,0,4.4-1,6.2-2.9l0.9,0.9c-1.9,1.9-4,3.2-7.2,3.2 C411.1,355.6,407.3,351.5,407.3,346.2z"/>
      <path class="st0" d="M436.1,346.2L436.1,346.2c0-5.1,3.6-9.6,9.1-9.6c5.5,0,9,4.4,9,9.5v0.1c0,5-3.6,9.5-9.1,9.5 C439.7,355.6,436.1,351.2,436.1,346.2z M452.9,346.2L452.9,346.2c0-4.6-3.2-8.3-7.7-8.3c-4.5,0-7.7,3.7-7.7,8.2v0.1 c0,4.5,3.2,8.3,7.7,8.3C449.7,354.4,452.9,350.7,452.9,346.2z"/>
      <path class="st0" d="M469.1,336.9h1.3l12.4,16v-16h1.3v18.4h-1L470.4,339v16.3h-1.3V336.9z"/>
      <path class="st0" d="M504.8,338.2h-6.3v-1.3h13.9v1.3h-6.3v17.1h-1.3V338.2z"/>
      <path class="st0" d="M526.8,336.9h7.6c2.2,0,4,0.7,5.1,1.8c0.9,0.9,1.4,2.1,1.4,3.4v0.1c0,3.1-2.2,4.8-5.3,5.3l6,7.8h-1.7 l-5.7-7.6h-5.9v7.6h-1.3V336.9z M534.2,346.5c3,0,5.3-1.5,5.3-4.2v-0.1c0-2.5-1.9-4-5.2-4h-6.2v8.3H534.2z"/>
      <path class="st0" d="M554.9,346.2L554.9,346.2c0-5.1,3.6-9.6,9.1-9.6c5.5,0,9,4.4,9,9.5v0.1c0,5-3.6,9.5-9.1,9.5 C558.5,355.6,554.9,351.2,554.9,346.2z M571.6,346.2L571.6,346.2c0-4.6-3.2-8.3-7.7-8.3c-4.5,0-7.7,3.7-7.7,8.2v0.1 c0,4.5,3.2,8.3,7.7,8.3C568.4,354.4,571.6,350.7,571.6,346.2z"/>
      <path class="st0" d="M587.9,336.9h1.3v17.1h10.6v1.3h-11.9V336.9z"/>
      <path class="st0" d="M631,352.6l0.9-1c2,1.9,3.8,2.7,6.5,2.7c2.7,0,4.6-1.5,4.6-3.7v-0.1c0-1.9-1-3.1-5.1-3.9 c-4.3-0.9-6.1-2.4-6.1-5.2v-0.1c0-2.7,2.4-4.8,5.8-4.8c2.6,0,4.4,0.7,6.2,2.2l-0.8,1.1c-1.7-1.5-3.4-2.1-5.4-2.1 c-2.7,0-4.4,1.5-4.4,3.5v0.1c0,1.9,1,3.1,5.3,4c4.2,0.9,5.9,2.4,5.9,5.1v0.1c0,3-2.5,5-6,5C635.4,355.6,633.2,354.6,631,352.6z"/>
      <path class="st0" d="M664.1,348l-7.7-11.1h1.7l6.8,9.9l6.8-9.9h1.6l-7.7,11.1v7.3h-1.3V348z"/>
      <path class="st0" d="M684.9,352.6l0.9-1c2,1.9,3.8,2.7,6.5,2.7c2.7,0,4.6-1.5,4.6-3.7v-0.1c0-1.9-1-3.1-5.1-3.9 c-4.3-0.9-6.1-2.4-6.1-5.2v-0.1c0-2.7,2.4-4.8,5.8-4.8c2.6,0,4.4,0.7,6.2,2.2l-0.9,1.1c-1.7-1.5-3.4-2.1-5.4-2.1 c-2.7,0-4.4,1.5-4.4,3.5v0.1c0,1.9,1,3.1,5.3,4c4.2,0.9,5.9,2.4,5.9,5.1v0.1c0,3-2.5,5-6,5C689.2,355.6,687,354.6,684.9,352.6z"/>
      <path class="st0" d="M717.4,338.2h-6.3v-1.3h13.9v1.3h-6.3v17.1h-1.3V338.2z"/>
      <path class="st0" d="M739.4,336.9h12.8v1.3h-11.5v7.2h10.3v1.3h-10.3v7.4h11.6v1.3h-13V336.9z"/>
      <path class="st0" d="M767,336.9h1.3v18.4h-1.3v-16l-7.1,10.6h-0.1l-7.1-10.6v16H767V336.9z"/>
    </g>
  </g>
  <g id="SACS">
    <g>
      <path class="st0" d="M741.1,188.5h-6.2h-30.4h-34c-9.7,0-10.8-4.1-10.8-7.2c0-5.1,3.5-7.6,10.8-7.6h95.1c2.1,0,3.8-1.7,3.8-3.8 v-28.5c0-2.1-1.7-3.8-3.8-3.8H660.1c-26.9,0-42.9,21.6-42.9,42.5c0,19.9,15.1,41,42.9,41h44.3h26.3c9.7,0,10.8,4.1,10.8,7.2 c0,5.1-3.5,7.6-10.8,7.6H601.2c-2.1,0-3.8,1.7-3.8,3.8v28.5c0,2.1,1.7,3.8,3.8,3.8h139.9c26.9,0,42.9-21.6,42.9-42.5 C784,209.7,768.9,188.5,741.1,188.5z"/>
      <path class="st0" d="M207.7,188.5h-6.2H171h-34c-9.7,0-10.8-4.1-10.8-7.2c0-5.1,3.5-7.6,10.8-7.6h95.1c2.1,0,3.8-1.7,3.8-3.8 v-28.5c0-2.1-1.7-3.8-3.8-3.8H126.7c-26.9,0-42.9,21.6-42.9,42.5c0,19.9,15.1,41,42.9,41H171h26.3c9.7,0,10.8,4.1,10.8,7.2 c0,5.1-3.5,7.6-10.8,7.6H67.8c-2.1,0-3.8,1.7-3.8,3.8v28.5c0,2.1,1.7,3.8,3.8,3.8h139.9c26.9,0,42.9-21.6,42.9-42.5 C250.6,209.7,235.5,188.5,207.7,188.5z"/>
      <g>
        <path class="st0" d="M578.6,268.3c0,2.1-1.7,3.8-3.8,3.8H462.6c-33.4,0-37-24.1-37-34.5v-96.2c0-2.1,1.7-3.8,3.8-3.8h142 c2.1,0,3.8,1.7,3.8,3.8v28.5c0,2.1-1.7,3.8-3.8,3.8h-106c-2.1,0-3.8,1.7-3.8,3.8l0,57c0,2-0.6,1.5,1.4,1.5h111.7 c2.1,0,3.8,1.7,3.8,3.8V268.3z"/>
      </g>
      <path class="st0" d="M378.9,137.6h-29.8c-13.9,0-24,13.6-27.7,19.5c-2.7,4.3-43.3,71.9-65.9,109.6c-1.4,2.3,0.3,5.3,3,5.3l32,0 c1.2,0,2.4-0.6,3-1.7c2.2-3.7,4.5-7.5,6.8-11.3l68.2,0v9.5c0,1.9,1.6,3.5,3.5,3.5h29.2c1.9,0,3.5-1.6,3.5-3.5V165.9 C404.6,150.3,393.1,137.6,378.9,137.6z M321.5,222.9c13.9-23.6,25.8-44.1,29-49.4c0.5-0.8,1.4-1.3,2.4-1.3h11.9 c1.9,0,3.5,1.6,3.5,3.5v47.3L321.5,222.9z"/>
    </g>
  </g>
</svg>